<svg width="25" height="25" viewBox="0 0 25 25" fill="none" xmlns="http://www.w3.org/2000/svg">
<g id="notification 2 1">
<path id="Vector" d="M11.4423 25C13.3289 25 14.907 23.6551 15.2694 21.875H7.61523C7.97782 23.6551 9.55596 25 11.4423 25Z" fill="#A5AAB6"/>
<path id="Vector_2" d="M18.7468 12.499C18.7426 12.499 18.7384 12.5 18.7342 12.5C14.7145 12.5 11.4426 9.22906 11.4426 5.20837C11.4426 4.10307 11.6969 3.05822 12.1396 2.11866C11.9103 2.09692 11.678 2.08337 11.4426 2.08337C7.41566 2.08337 4.15104 5.3478 4.15104 9.37498V12.2791C4.15104 14.3406 3.24791 16.2864 1.66348 17.626C1.13533 18.0771 0.900917 18.7958 1.09051 19.4969C1.31138 20.3125 2.11761 20.8334 2.96352 20.8334H19.9166C20.8041 20.8334 21.6407 20.2583 21.8207 19.3886C21.9603 18.7156 21.7208 18.0437 21.1989 17.6052C19.6843 16.3355 18.8083 14.4697 18.7468 12.499Z" fill="#A5AAB6"/>
<path id="Vector_3" d="M23.943 5.2084C23.943 8.08487 21.6112 10.4166 18.7346 10.4166C15.8581 10.4166 13.5264 8.08487 13.5264 5.2084C13.5264 2.33192 15.8581 0 18.7346 0C21.6112 0 23.943 2.33192 23.943 5.2084Z" fill="#F51E1E"/>
</g>
</svg>
